<!DOCTYPE svg PUBLIC "-//W3C//DTD SVG 1.1//EN" "http://www.w3.org/Graphics/SVG/1.1/DTD/svg11.dtd">
<!-- Uploaded to: SVG Repo, www.svgrepo.com, Transformed by: SVG Repo Mixer Tools -->
<svg width="800px" height="800px" viewBox="0 0 128 128" xmlns="http://www.w3.org/2000/svg" xmlns:xlink="http://www.w3.org/1999/xlink" aria-hidden="true" role="img" class="iconify iconify--noto" preserveAspectRatio="xMidYMid meet" fill="#121111" stroke="#121111">
<g id="SVGRepo_bgCarrier" stroke-width="0"/>
<g id="SVGRepo_tracerCarrier" stroke-linecap="round" stroke-linejoin="round"/>
<g id="SVGRepo_iconCarrier">
<radialGradient id="IconifyId17ecdb2904d178eab6075" cx="-1155.24" cy="-125.6" r="86.172" gradientTransform="rotate(-47.026 -362.329 -1408.928)" gradientUnits="userSpaceOnUse">
<stop offset=".65" stop-color="#f1f4f4"/>
<stop offset="1" stop-color="#f1f4f4"/>
</radialGradient>
<path d="M72.18 120.65c-4.98 0-9.88-1.77-14.56-5.26c-3.9-2.91-43.84-39.19-44.25-39.55c-1.94-1.81-4.75-5.35-1.68-8.65c1.16-1.25 2.62-1.91 4.2-1.91c1.78 0 3.63.81 5.21 2.28l16.5 14.77a1.502 1.502 0 0 0 2.1-.1c.56-.6.53-1.53-.06-2.1l-26.4-25.39c-1.5-1.4-2.43-3.08-2.63-4.76c-.21-1.7.34-3.29 1.58-4.62c1.16-1.25 2.62-1.91 4.21-1.91c1.78 0 3.63.81 5.21 2.28l26.96 24.49a1.502 1.502 0 0 0 2.11-.09c.56-.6.53-1.54-.06-2.11L18.17 37.05c-1.5-1.39-2.42-3.08-2.63-4.75c-.21-1.7.34-3.29 1.58-4.62c1.16-1.25 2.62-1.91 4.21-1.91c1.78 0 3.63.81 5.21 2.28l33.03 30a1.502 1.502 0 0 0 2.11-.09c.56-.6.53-1.54-.06-2.11L37.57 32.84c-2.62-2.44-3.95-6.27-1.05-9.38c1.16-1.25 2.62-1.91 4.21-1.91c1.78 0 3.63.81 5.21 2.28c8.79 8.04 31.75 29.08 32.54 29.87c.61.68 1.28.83 1.73.83c1.75 0 2.61-2.03 2.68-4.03c.09-2.45-.56-5.5-1.19-8.45c-.69-3.24-1.41-6.6-1.09-8.88c.64-4.62 4.83-7.57 7.42-7.57c.32 0 .6.05.81.14c4 1.71 3.94 4.09 3.38 9.8l-.11 1.1c-.52 5.57 1.97 10.68 4.38 15.62c1.08 2.21 2.19 4.49 3.03 6.79c.4 1.1.96 2.34 1.61 3.79c4.39 9.72 11.73 25.98-6.55 45.77c-7.38 7.99-14.91 12.04-22.4 12.04z" fill="url(#IconifyId17ecdb2904d178eab6075)"/>
<path d="M40.72 23.06c1.4 0 2.89.67 4.21 1.89c12.46 11.4 31.26 28.63 32.46 29.8c1.05 1.13 2.21 1.3 2.82 1.3c2.38 0 4.07-2.2 4.18-5.48c.09-2.64-.58-5.78-1.23-8.82c-.67-3.12-1.36-6.34-1.08-8.36c.57-4.06 4.22-6.28 5.94-6.28c.15 0 .22.02.23.02c2.9 1.24 3.04 2.48 2.47 8.27l-.11 1.11c-.56 5.99 2.02 11.29 4.52 16.42c1.06 2.17 2.15 4.42 2.96 6.65c.42 1.15.99 2.42 1.66 3.89c4.23 9.38 11.32 25.07-6.29 44.13c-7.08 7.66-14.24 11.54-21.29 11.54c-4.65 0-9.24-1.67-13.66-4.97c-3.19-2.38-32.94-29.29-44.11-39.43c-4.13-3.85-2.24-5.88-1.62-6.54c.88-.95 1.93-1.43 3.11-1.43c1.4 0 2.89.67 4.19 1.88l.04.04L36.6 83.44c.57.51 1.29.76 2 .76c.81 0 1.61-.32 2.2-.96a2.998 2.998 0 0 0-.12-4.2L14.24 53.62c-1.9-1.77-3.3-4.74-.96-7.24c.88-.95 1.93-1.43 3.11-1.43c1.4 0 2.89.67 4.22 1.9l26.95 24.47a3 3 0 0 0 2.02.78c.8 0 1.61-.32 2.2-.96a3.001 3.001 0 0 0-.12-4.21l-32.47-31c-1.9-1.77-3.3-4.74-.96-7.24c.88-.95 1.93-1.43 3.11-1.43c1.4 0 2.89.67 4.22 1.9l33.02 29.99a3 3 0 0 0 4.21-.17a2.992 2.992 0 0 0-.12-4.21L38.58 31.73c-1.9-1.77-3.3-4.74-.96-7.24c.88-.95 1.93-1.43 3.1-1.43m0-3c-1.91 0-3.78.75-5.3 2.38c-3.24 3.48-2.38 8.23 1.11 11.48l24.04 23.01l-33.02-29.99c-1.85-1.72-4.07-2.68-6.23-2.68c-1.91 0-3.78.75-5.3 2.38c-3.24 3.48-2.38 8.23 1.11 11.48l32.44 30.97l-26.95-24.46c-1.85-1.72-4.07-2.68-6.23-2.68c-1.91 0-3.78.75-5.3 2.38c-3.24 3.48-2.38 8.23 1.11 11.48L38.61 81.2L22.13 66.46c-1.85-1.72-4.07-2.68-6.23-2.68c-1.91 0-3.78.75-5.3 2.38c-3.24 3.48-1.73 7.53 1.77 10.78c0 0 40.36 36.66 44.36 39.64c3.32 2.47 8.68 5.56 15.46 5.56c6.67 0 14.7-2.99 23.5-12.51c21.77-23.56 8.19-42.99 5.25-51.09c-2.74-7.53-8.02-14.24-7.32-21.76c.56-5.99 1.34-10.07-4.18-12.42c-.41-.18-.89-.26-1.4-.26c-3.26 0-8.15 3.38-8.91 8.86c-.66 4.73 2.45 12.57 2.28 17.48c-.04 1.22-.5 2.59-1.19 2.59c-.2 0-.42-.11-.65-.37c-.44-.49-32.6-29.93-32.6-29.93c-1.87-1.72-4.09-2.67-6.25-2.67z" fill="#0d0d0d"/>
<radialGradient id="IconifyId17ecdb2904d178eab6076" cx="-497.433" cy="99.376" r="87.581" gradientTransform="rotate(-21.616 -381.735 -1383.02)" gradientUnits="userSpaceOnUse">
<stop offset=".359" stop-color="#f1f4f4"/>
<stop offset=".882" stop-color="#eae6e6"/>
</radialGradient>
<path d="M70.94 122.5c-15.08 0-22.73-10.15-25.95-16.2C42.7 102 22.9 55.16 22.7 54.68c-.8-2.02-1.06-3.88-.72-5.34c.34-1.5 1.3-2.54 2.92-3.18c.76-.3 1.52-.45 2.26-.45c2.57 0 4.9 1.85 6.08 4.83l8.57 20.42c.24.57.8.92 1.38.92c.19 0 .37-.03.56-.11c.76-.3 1.14-1.16.85-1.92L31.64 35.59c-1.32-3.33-.87-7.36 3.07-8.93c.76-.3 1.52-.45 2.26-.45c2.57 0 4.9 1.85 6.08 4.83L56.9 64.73c.24.58.8.93 1.39.93c.18 0 .37-.03.55-.11c.76-.3 1.14-1.16.85-1.93l-16.01-41.9c-1.32-3.32-.87-7.36 3.08-8.92c.76-.3 1.52-.45 2.26-.45c2.57 0 4.9 1.85 6.08 4.83l16.96 41.27c.24.58.8.93 1.39.93c.18 0 .37-.03.55-.11c.76-.3 1.14-1.16.85-1.93l-11.84-31.1c-1.32-3.32-.87-7.36 3.07-8.92c.76-.3 1.52-.45 2.26-.45c2.57 0 4.9 1.85 6.08 4.83C78.92 32.75 90.63 61.6 91 62.65c.46 1.57 1.71 1.69 2.08 1.69c1.79 0 3.04-2.24 3.28-2.69c1-1.92 1.27-4.12 1.56-6.45c.43-3.42.87-6.95 3.66-10c2.32-2.54 5.29-4 8.16-4c1.37 0 2.61.34 3.56.98c2.39 1.6 2.52 3.15 2.32 4.46c-.34 2.29-2.13 5.22-3.84 7.78c-3.46 5.18-3.87 13.07-4.22 20.03c-.11 2.06-.21 4.01-.38 5.81c-.14 1.48-.09 3.26-.02 5.33c.16 5.22.36 11.72-2.34 18.03c-3.19 7.45-9.67 12.78-19.81 16.29c-4.97 1.72-9.7 2.59-14.07 2.59z" fill="url(#IconifyId17ecdb2904d178eab6076)"/>
<path d="M49.02 13.85c1.94 0 3.74 1.49 4.7 3.92l16.95 41.25a2.999 2.999 0 0 0 3.88 1.65a3 3 0 0 0 1.7-3.86L64.4 25.68c-.62-1.55-.72-3.11-.3-4.38c.4-1.2 1.26-2.07 2.54-2.58c.58-.23 1.16-.35 1.71-.35c1.94 0 3.74 1.49 4.69 3.91c6.36 15.65 15.95 39.29 16.54 40.84c.53 1.66 1.9 2.72 3.51 2.72c2.59 0 4.18-2.68 4.61-3.5c1.12-2.16 1.43-4.6 1.72-6.95c.42-3.33.81-6.47 3.28-9.18c2.04-2.23 4.61-3.51 7.05-3.51c1.06 0 2.03.26 2.73.72c1.87 1.25 3.35 2.23-1.93 10.16c-3.69 5.53-4.1 13.63-4.48 20.79c-.11 2.04-.21 3.97-.37 5.75c-.15 1.57-.09 3.4-.03 5.51c.31 10.06.78 25.27-21.14 32.85c-4.82 1.67-9.39 2.51-13.58 2.51c-14.29 0-21.57-9.65-24.63-15.4c-1.87-3.51-16.66-38.31-22.22-51.46c-2.06-5.22.51-6.24 1.36-6.57c.58-.23 1.16-.35 1.71-.35c1.94 0 3.74 1.49 4.68 3.88c.01.02.02.04.02.06l8.56 20.39a2.992 2.992 0 0 0 2.77 1.84c.37 0 .75-.07 1.11-.21A3 3 0 0 0 46 69.32l-12.98-34.3c-.96-2.42-.95-5.69 2.24-6.96c.58-.23 1.16-.35 1.71-.35c1.94 0 3.74 1.49 4.7 3.92L55.51 65.3a2.999 2.999 0 0 0 3.88 1.65a3.008 3.008 0 0 0 1.7-3.86L45.07 21.16c-.96-2.42-.95-5.69 2.24-6.96c.58-.23 1.15-.35 1.71-.35m0-3c-.91 0-1.86.18-2.82.56c-4.42 1.75-5.68 6.41-3.92 10.85l16.01 41.9l-13.84-33.67c-1.38-3.47-4.2-5.78-7.47-5.78c-.91 0-1.86.18-2.82.56c-4.42 1.75-5.68 6.41-3.92 10.85L43.2 70.39L34.64 50c-1.38-3.47-4.2-5.78-7.47-5.78c-.91 0-1.86.18-2.82.56c-4.42 1.75-4.79 6.06-3.03 10.5c0 0 20 47.33 22.35 51.74C47.4 114.03 55.75 124 70.94 124c4.29 0 9.13-.79 14.57-2.68c28.63-9.91 22.36-32.35 23.17-40.92c.76-7.98.17-18.86 4.36-25.15c4.4-6.61 6.09-10.99 1.1-14.32c-1.19-.79-2.72-1.23-4.4-1.23c-2.97 0-6.41 1.36-9.26 4.49c-5.06 5.55-3.18 12.41-5.45 16.77c-.5.96-1.33 1.88-1.95 1.88c-.28 0-.52-.19-.66-.67c-.19-.63-16.61-41.03-16.61-41.03c-1.38-3.47-4.2-5.78-7.47-5.78c-.91 0-1.86.18-2.82.56c-4.42 1.75-5.68 6.41-3.92 10.85l11.84 31.1l-16.95-41.24c-1.37-3.47-4.19-5.78-7.47-5.78z" fill="#0d0d0d"/>
<path fill="none" stroke="#f1f4f4" stroke-width="4.405" stroke-linecap="round" stroke-linejoin="round" stroke-miterlimit="10" d="M99.07 30.43l16.89-6.61"/>
<path fill="none" stroke="#f1f4f4" stroke-width="4.405" stroke-linecap="round" stroke-linejoin="round" stroke-miterlimit="10" d="M83.29 20.15L81.82 4"/>
<path fill="none" stroke="#f1f4f4" stroke-width="4.405" stroke-linecap="round" stroke-linejoin="round" stroke-miterlimit="10" d="M94.1 22.1l11.21-16.63"/>
</g>
</svg>